<svg width="32" height="32" viewBox="0 0 32 32" fill="none" xmlns="http://www.w3.org/2000/svg">
<circle cx="16" cy="16" r="15.5" fill="#17171B" stroke="#F4F4F6"/>
<path d="M7.45 10H8.83V13.89C8.83 14.2633 8.85 14.5467 8.89 14.74C8.93667 14.9267 9.03667 15.1333 9.19 15.36C9.34333 15.58 9.45333 15.69 9.52 15.69C9.58667 15.69 9.69667 15.58 9.85 15.36C10.0033 15.1333 10.1 14.9267 10.14 14.74C10.1867 14.5467 10.21 14.2633 10.21 13.89V12.72C10.21 12.16 10.17 11.77 10.09 11.55C10.0167 11.33 9.85667 11.06 9.61 10.74L10.81 9.88C11.0233 10.02 11.2067 10.2933 11.36 10.7C11.5133 11.1 11.59 11.58 11.59 12.14V13.79C11.59 14.31 11.54 14.7367 11.44 15.07C11.34 15.4033 11.0533 15.83 10.58 16.35C10.1133 16.8633 9.76 17.12 9.52 17.12C9.28 17.12 8.92333 16.8633 8.45 16.35C7.98333 15.83 7.7 15.4033 7.6 15.07C7.5 14.7367 7.45 14.31 7.45 13.79V10Z" fill="#6C63FF"/>
<path d="M15.79 10.4L15.4245 10.5625L15.6334 11.0326L16.0375 10.7142L15.79 10.4ZM17.84 10.54L17.5676 10.833L17.572 10.8369L17.84 10.54ZM18.73 11.6L18.3605 11.7532L18.3616 11.7559L18.73 11.6ZM18.73 15.4L19.0934 15.5677L19.0984 15.5559L18.73 15.4ZM17.86 16.4L18.1225 16.7019L18.1249 16.6997L17.86 16.4ZM14.7 17H14.3V17.4H14.7V17ZM14.58 11.58L14.2004 11.7065L14.2041 11.7167L14.58 11.58ZM14.1 10.8L13.8713 10.4718L13.516 10.7195L13.791 11.054L14.1 10.8ZM15.42 9.88L15.6624 9.56183L15.4305 9.38512L15.1913 9.55184L15.42 9.88ZM16.05 11.5L15.8883 11.1341L15.6112 11.2566L15.654 11.5566L16.05 11.5ZM16.08 15.79H15.68V16.19H16.08V15.79ZM17.1 15.59L16.8103 15.3141L16.81 15.3145L17.1 15.59ZM17.38 15.2L17.7456 15.3625L17.7487 15.3552L17.38 15.2ZM17.38 11.91L17.0113 12.0653L17.0145 12.0725L17.38 11.91ZM17.1 11.52L16.8034 11.7884L16.8101 11.7958L16.8172 11.8028L17.1 11.52ZM16.0375 10.7142C16.2464 10.5496 16.4181 10.4359 16.5545 10.3649C16.6973 10.2907 16.77 10.28 16.79 10.28V9.48C16.5834 9.48 16.3761 9.55599 16.1855 9.65511C15.9886 9.75747 15.7736 9.90372 15.5425 10.0858L16.0375 10.7142ZM16.79 10.28C16.7883 10.28 16.8533 10.2854 17.0096 10.3837C17.1551 10.4751 17.3403 10.6217 17.5677 10.833L18.1123 10.247C17.8663 10.0183 17.6399 9.83493 17.4354 9.70635C17.2417 9.58461 17.0184 9.48 16.79 9.48V10.28ZM17.572 10.8369C18.0481 11.2668 18.2842 11.5691 18.3605 11.7532L19.0995 11.4468C18.9492 11.0843 18.5919 10.6799 18.108 10.2431L17.572 10.8369ZM18.3616 11.7559C18.3616 11.7557 18.3624 11.7576 18.3638 11.7621C18.3653 11.7665 18.3672 11.7727 18.3694 11.781C18.374 11.7978 18.3791 11.8206 18.3845 11.8504C18.3953 11.9103 18.4054 11.9897 18.4139 12.091C18.4309 12.2936 18.44 12.5654 18.44 12.91H19.24C19.24 12.5546 19.2307 12.258 19.2111 12.024C19.1927 11.8046 19.1622 11.5951 19.0984 11.4441L18.3616 11.7559ZM18.44 12.91V14.09H19.24V12.91H18.44ZM18.44 14.09C18.44 14.4346 18.4309 14.7064 18.4139 14.909C18.4054 15.0103 18.3953 15.0897 18.3845 15.1496C18.3791 15.1794 18.374 15.2022 18.3694 15.219C18.3672 15.2273 18.3653 15.2335 18.3638 15.2379C18.3624 15.2424 18.3616 15.2443 18.3616 15.2441L19.0984 15.5559C19.1622 15.4049 19.1927 15.1954 19.2111 14.976C19.2307 14.742 19.24 14.4454 19.24 14.09H18.44ZM18.3668 15.2324C18.2843 15.4111 18.0503 15.6978 17.5951 16.1003L18.1249 16.6997C18.5897 16.2888 18.9357 15.9089 19.0932 15.5676L18.3668 15.2324ZM17.5975 16.0982C17.3799 16.2874 17.1978 16.418 17.0496 16.4996C16.8972 16.5835 16.8085 16.6 16.77 16.6V17.4C16.9982 17.4 17.2245 17.3165 17.4354 17.2004C17.6505 17.082 17.8801 16.9126 18.1225 16.7018L17.5975 16.0982ZM16.77 16.6H14.7V17.4H16.77V16.6ZM15.1 17V12.72H14.3V17H15.1ZM15.1 12.72C15.1 12.1784 15.0622 11.7355 14.9559 11.4433L14.2041 11.7167C14.2578 11.8645 14.3 12.1816 14.3 12.72H15.1ZM14.9595 11.4535C14.8636 11.166 14.6686 10.8618 14.409 10.546L13.791 11.054C14.0247 11.3382 14.1497 11.554 14.2005 11.7065L14.9595 11.4535ZM14.3287 11.1282L15.6487 10.2082L15.1913 9.55184L13.8713 10.4718L14.3287 11.1282ZM15.1776 10.1982C15.2442 10.2489 15.3327 10.356 15.4245 10.5625L16.1555 10.2375C16.034 9.96405 15.8758 9.72442 15.6624 9.56183L15.1776 10.1982ZM16.77 10.91C16.497 10.91 16.1981 10.9973 15.8883 11.1341L16.2117 11.8659C16.4753 11.7494 16.6563 11.71 16.77 11.71V10.91ZM15.654 11.5566C15.6698 11.6672 15.68 11.8572 15.68 12.14H16.48C16.48 11.8495 16.4702 11.6128 16.446 11.4434L15.654 11.5566ZM15.68 12.14V15.79H16.48V12.14H15.68ZM16.08 16.19H16.77V15.39H16.08V16.19ZM16.77 16.19C17.0405 16.19 17.2524 16.0104 17.39 15.8655L16.81 15.3145C16.7616 15.3655 16.7299 15.389 16.7152 15.3979C16.7 15.4071 16.7209 15.39 16.77 15.39V16.19ZM17.3897 15.8659C17.5411 15.7069 17.667 15.5391 17.7455 15.3625L17.0145 15.0375C16.9863 15.1009 16.9256 15.1931 16.8103 15.3141L17.3897 15.8659ZM17.7487 15.3552C17.8031 15.2259 17.8255 15.0508 17.8388 14.8841C17.8533 14.7009 17.86 14.4683 17.86 14.19H17.06C17.06 14.4584 17.0534 14.6675 17.0412 14.8209C17.0278 14.9909 17.0102 15.0474 17.0113 15.0448L17.7487 15.3552ZM17.86 14.19V12.91H17.06V14.19H17.86ZM17.86 12.91C17.86 12.6318 17.8533 12.3999 17.8387 12.2181C17.8257 12.0551 17.8033 11.8776 17.7455 11.7475L17.0145 12.0725C17.01 12.0624 17.0276 12.1115 17.0413 12.2819C17.0534 12.4335 17.06 12.6416 17.06 12.91H17.86ZM17.7487 11.7548C17.6693 11.5662 17.54 11.3944 17.3828 11.2372L16.8172 11.8028C16.9266 11.9123 16.9841 12.0004 17.0113 12.0652L17.7487 11.7548ZM17.3966 11.2516C17.262 11.1029 17.0484 10.91 16.77 10.91V11.71C16.716 11.71 16.6925 11.6903 16.7078 11.7C16.7223 11.7092 16.7544 11.7342 16.8034 11.7884L17.3966 11.2516Z" fill="#F4F4F6"/>
<path d="M21.25 13.97V13.03C21.25 12.1967 21.3167 11.6633 21.45 11.43C21.5833 11.1967 21.8667 10.88 22.3 10.48C22.74 10.08 23.0667 9.88 23.28 9.88C23.6467 9.88 24.0667 10.0933 24.54 10.52C25.0133 10.94 25.3133 11.4033 25.44 11.91L24.33 12.68C24.2233 12.32 24.0533 11.99 23.82 11.69C23.5867 11.3833 23.4233 11.23 23.33 11.23C23.1633 11.23 22.9733 11.3933 22.76 11.72C22.6733 11.8467 22.63 12.2833 22.63 13.03V13.97C22.63 14.7367 22.6733 15.1733 22.76 15.28C22.9733 15.6067 23.1633 15.77 23.33 15.77C23.4233 15.77 23.5867 15.64 23.82 15.38C24.0533 15.1133 24.2233 14.82 24.33 14.5L25.44 15.28C25.3133 15.74 25.0133 16.1633 24.54 16.55C24.0667 16.93 23.6467 17.12 23.28 17.12C23.0667 17.12 22.74 16.92 22.3 16.52C21.8667 16.12 21.5833 15.8033 21.45 15.57C21.3167 15.3367 21.25 14.8033 21.25 13.97Z" fill="#6C63FF"/>
<path d="M4.95 22C4.85333 22 4.77333 21.9883 4.71 21.965C4.64667 21.9417 4.59667 21.9 4.56 21.84C4.52333 21.78 4.49667 21.6983 4.48 21.595L4.19 19.7H4.67L4.915 21.38C4.92833 21.46 4.94667 21.5133 4.97 21.54C4.99333 21.5667 5.03667 21.58 5.1 21.58H5.225L5.635 19.7H6.135L6.58 21.58H6.715C6.765 21.58 6.80167 21.57 6.825 21.55C6.84833 21.5267 6.865 21.49 6.875 21.44L7.085 19.7H7.45L7.19 21.61C7.17667 21.72 7.14833 21.8033 7.105 21.86C7.065 21.9167 7.00833 21.955 6.935 21.975C6.86167 21.9917 6.76833 22 6.655 22H6.26L5.905 20.445L5.86 20.25L5.82 20.45L5.495 22H4.95ZM8.82469 22.03C8.62135 22.03 8.44969 22.0167 8.30969 21.99C8.17302 21.9633 8.06302 21.9133 7.97969 21.84C7.89969 21.7667 7.84302 21.665 7.80969 21.535C7.77635 21.405 7.75969 21.2367 7.75969 21.03C7.75969 20.7833 7.79135 20.5833 7.85469 20.43C7.91802 20.2767 8.02969 20.165 8.18969 20.095C8.35302 20.0217 8.57969 19.985 8.86969 19.985C9.09635 19.985 9.27635 20.0133 9.40969 20.07C9.54635 20.1233 9.64469 20.2083 9.70469 20.325C9.76469 20.4417 9.79469 20.59 9.79469 20.77V21.09H8.38969C8.38969 21.0367 8.40135 20.9933 8.42469 20.96C8.44802 20.9267 8.49135 20.91 8.55469 20.91H9.37469L9.36969 20.78C9.36635 20.5933 9.32635 20.4567 9.24969 20.37C9.17635 20.2833 9.04302 20.24 8.84969 20.24C8.68969 20.24 8.56469 20.265 8.47469 20.315C8.38469 20.365 8.32135 20.4467 8.28469 20.56C8.24802 20.67 8.22969 20.8233 8.22969 21.02C8.22969 21.2233 8.24969 21.3783 8.28969 21.485C8.33302 21.5883 8.40302 21.6583 8.49969 21.695C8.59969 21.7317 8.73802 21.75 8.91469 21.75C8.97802 21.75 9.05135 21.7483 9.13469 21.745C9.22135 21.7417 9.30802 21.7367 9.39469 21.73C9.48469 21.7233 9.56469 21.715 9.63469 21.705C9.70469 21.695 9.75135 21.685 9.77469 21.675V21.745C9.77469 21.7817 9.76635 21.8183 9.74969 21.855C9.73302 21.8917 9.69802 21.9217 9.64469 21.945C9.57469 21.9783 9.47135 22 9.33469 22.01C9.20135 22.0233 9.03135 22.03 8.82469 22.03ZM11.197 22.015C10.997 22.015 10.832 22.005 10.702 21.985C10.5754 21.9617 10.477 21.9167 10.407 21.85C10.3404 21.7833 10.2937 21.685 10.267 21.555C10.2437 21.425 10.232 21.2517 10.232 21.035L10.227 19.475H10.687V20.02C10.7004 20.02 10.732 20.02 10.782 20.02C10.832 20.0167 10.8904 20.015 10.957 20.015C11.027 20.0117 11.0954 20.0083 11.162 20.005C11.2287 20.0017 11.287 20 11.337 20C11.577 20 11.7637 20.0317 11.897 20.095C12.0304 20.1583 12.1237 20.2633 12.177 20.41C12.2337 20.5567 12.2637 20.755 12.267 21.005C12.267 21.245 12.242 21.4333 12.192 21.57C12.1454 21.7067 12.077 21.8067 11.987 21.87C11.897 21.9333 11.7854 21.9733 11.652 21.99C11.5187 22.0067 11.367 22.015 11.197 22.015ZM11.202 21.755C11.3587 21.755 11.4787 21.7383 11.562 21.705C11.6487 21.6683 11.7087 21.595 11.742 21.485C11.7787 21.375 11.797 21.2083 11.797 20.985C11.7937 20.8017 11.7737 20.6583 11.737 20.555C11.7004 20.4517 11.6404 20.3783 11.557 20.335C11.477 20.2883 11.3687 20.265 11.232 20.265C11.1954 20.265 11.1487 20.2667 11.092 20.27C11.0354 20.27 10.9787 20.2717 10.922 20.275C10.8654 20.275 10.8154 20.2767 10.772 20.28C10.732 20.28 10.7054 20.28 10.692 20.28V21.09C10.692 21.2367 10.697 21.3533 10.707 21.44C10.7204 21.5267 10.7437 21.5933 10.777 21.64C10.8104 21.6833 10.8604 21.7133 10.927 21.73C10.997 21.7467 11.0887 21.755 11.202 21.755ZM14.0252 21.59C14.0985 21.6333 14.1935 21.6667 14.3102 21.69C14.4302 21.71 14.5535 21.7233 14.6802 21.73C14.8068 21.7333 14.9168 21.735 15.0102 21.735C15.0468 21.735 15.0885 21.735 15.1352 21.735C15.1852 21.7317 15.2285 21.73 15.2652 21.73C15.3852 21.7267 15.4902 21.7133 15.5802 21.69C15.6702 21.6633 15.7385 21.62 15.7852 21.56C15.8352 21.5 15.8602 21.415 15.8602 21.305C15.8602 21.1683 15.8235 21.08 15.7502 21.04C15.6802 21 15.5768 20.98 15.4402 20.98C15.3935 20.98 15.3435 20.98 15.2902 20.98C15.2368 20.98 15.1752 20.98 15.1052 20.98C15.0385 20.98 14.9602 20.98 14.8702 20.98C14.7702 20.98 14.6702 20.975 14.5702 20.965C14.4702 20.955 14.3802 20.9333 14.3002 20.9C14.2202 20.8633 14.1552 20.8067 14.1052 20.73C14.0552 20.65 14.0302 20.5383 14.0302 20.395C14.0302 20.2283 14.0602 20.0967 14.1202 20C14.1802 19.9033 14.2635 19.8333 14.3702 19.79C14.4802 19.7433 14.6052 19.7133 14.7452 19.7C14.8885 19.6867 15.0452 19.68 15.2152 19.68C15.3152 19.68 15.4252 19.6817 15.5452 19.685C15.6652 19.6883 15.7802 19.6967 15.8902 19.71C16.0002 19.72 16.0852 19.7383 16.1452 19.765C16.2152 19.7717 16.2685 19.7933 16.3052 19.83C16.3452 19.8633 16.3652 19.9067 16.3652 19.96C16.3652 19.97 16.3652 19.9867 16.3652 20.01C16.3652 20.0333 16.3652 20.055 16.3652 20.075C16.3652 20.095 16.3652 20.11 16.3652 20.12C16.3385 20.0867 16.2885 20.0617 16.2152 20.045C16.1452 20.025 16.0652 20.01 15.9752 20C15.8852 19.99 15.7968 19.9833 15.7102 19.98C15.6268 19.9733 15.5552 19.97 15.4952 19.97H15.1552C15.0418 19.97 14.9402 19.98 14.8502 20C14.7602 20.0167 14.6885 20.0533 14.6352 20.11C14.5818 20.1633 14.5552 20.2467 14.5552 20.36C14.5552 20.4467 14.5718 20.5133 14.6052 20.56C14.6418 20.6033 14.6935 20.6333 14.7602 20.65C14.8302 20.6633 14.9118 20.67 15.0052 20.67C15.1585 20.67 15.2885 20.67 15.3952 20.67C15.5018 20.67 15.5835 20.67 15.6402 20.67C15.7902 20.67 15.9218 20.6833 16.0352 20.71C16.1518 20.7333 16.2418 20.7883 16.3052 20.875C16.3718 20.9617 16.4052 21.0983 16.4052 21.285C16.4052 21.4617 16.3668 21.6033 16.2902 21.71C16.2135 21.8133 16.1085 21.8883 15.9752 21.935C15.8418 21.9783 15.6885 22.005 15.5152 22.015C15.4118 22.0217 15.3118 22.025 15.2152 22.025C15.1185 22.0283 15.0168 22.0283 14.9102 22.025C14.8135 22.025 14.7135 22.0217 14.6102 22.015C14.5068 22.0083 14.4102 21.9967 14.3202 21.98C14.2335 21.96 14.1618 21.9333 14.1052 21.9C14.0518 21.8667 14.0252 21.8217 14.0252 21.765V21.59ZM17.812 22.555C17.6486 22.555 17.4953 22.5467 17.352 22.53C17.212 22.5167 17.097 22.4933 17.007 22.46C16.9203 22.43 16.877 22.3917 16.877 22.345V22.195C16.9303 22.225 17.002 22.25 17.092 22.27C17.1853 22.29 17.282 22.305 17.382 22.315C17.4853 22.3283 17.5836 22.335 17.677 22.335C17.837 22.335 17.9653 22.3133 18.062 22.27C18.162 22.23 18.2353 22.165 18.282 22.075C18.3286 21.985 18.352 21.87 18.352 21.73V21.485C18.322 21.5517 18.2736 21.6067 18.207 21.65C18.1436 21.6933 18.0636 21.725 17.967 21.745C17.8703 21.7617 17.7536 21.77 17.617 21.77C17.387 21.77 17.217 21.7367 17.107 21.67C16.997 21.6033 16.9253 21.5083 16.892 21.385C16.862 21.2617 16.847 21.1183 16.847 20.955V20.22C16.847 20.17 16.8503 20.13 16.857 20.1C16.8636 20.0667 16.8786 20.0433 16.902 20.03C16.9253 20.0133 16.9636 20.005 17.017 20.005H17.327C17.327 20.0917 17.327 20.1717 17.327 20.245C17.327 20.3183 17.327 20.39 17.327 20.46C17.327 20.5267 17.327 20.5983 17.327 20.675C17.327 20.7483 17.327 20.8283 17.327 20.915C17.327 21.105 17.3486 21.245 17.392 21.335C17.4353 21.4217 17.4953 21.4767 17.572 21.5C17.6486 21.5233 17.737 21.535 17.837 21.535C17.937 21.535 18.0253 21.5217 18.102 21.495C18.1786 21.465 18.2386 21.4083 18.282 21.325C18.3253 21.2417 18.347 21.1167 18.347 20.95V20.005H18.652C18.712 20.005 18.7553 20.0133 18.782 20.03C18.8086 20.0467 18.822 20.095 18.822 20.175V21.69C18.822 21.99 18.742 22.2083 18.582 22.345C18.422 22.485 18.1653 22.555 17.812 22.555ZM20.0938 22.02C20.0305 22.02 19.9555 22.0183 19.8688 22.015C19.7822 22.0117 19.6938 22.005 19.6038 21.995C19.5172 21.9817 19.4388 21.9633 19.3688 21.94C19.3255 21.93 19.2905 21.9167 19.2638 21.9C19.2405 21.8833 19.2222 21.855 19.2088 21.815C19.1988 21.7717 19.1938 21.7067 19.1938 21.62C19.2772 21.6567 19.3705 21.6867 19.4738 21.71C19.5772 21.73 19.6788 21.7433 19.7788 21.75C19.8822 21.7567 19.9705 21.76 20.0438 21.76C20.1338 21.76 20.2222 21.7567 20.3088 21.75C20.3988 21.7433 20.4805 21.7283 20.5538 21.705C20.6305 21.6817 20.6905 21.645 20.7338 21.595C20.7805 21.545 20.8038 21.4767 20.8038 21.39C20.8038 21.2733 20.7738 21.1983 20.7138 21.165C20.6538 21.1317 20.5705 21.115 20.4638 21.115H19.9388C19.8088 21.115 19.6872 21.1067 19.5738 21.09C19.4638 21.0733 19.3738 21.03 19.3038 20.96C19.2372 20.89 19.2038 20.7717 19.2038 20.605C19.2038 20.4217 19.2488 20.285 19.3388 20.195C19.4288 20.105 19.5555 20.0467 19.7188 20.02C19.8855 19.9933 20.0805 19.98 20.3038 19.98C20.3872 19.98 20.4838 19.9817 20.5938 19.985C20.7072 19.9883 20.8122 19.9983 20.9088 20.015C20.9888 20.0217 21.0522 20.035 21.0988 20.055C21.1488 20.0717 21.1855 20.0967 21.2088 20.13C21.2322 20.16 21.2438 20.2067 21.2438 20.27V20.385C21.2138 20.3483 21.1622 20.3217 21.0888 20.305C21.0155 20.285 20.9288 20.27 20.8288 20.26C20.7322 20.25 20.6305 20.245 20.5238 20.245C20.4205 20.2417 20.3238 20.24 20.2338 20.24C20.1372 20.24 20.0438 20.2467 19.9538 20.26C19.8672 20.27 19.7972 20.2983 19.7438 20.345C19.6905 20.3917 19.6638 20.4683 19.6638 20.575C19.6638 20.6583 19.6805 20.7183 19.7138 20.755C19.7472 20.7917 19.7938 20.815 19.8538 20.825C19.9138 20.835 19.9822 20.84 20.0588 20.84H20.6088C20.7422 20.84 20.8588 20.8517 20.9588 20.875C21.0588 20.8983 21.1372 20.9483 21.1938 21.025C21.2505 21.1017 21.2788 21.2217 21.2788 21.385C21.2788 21.5717 21.2272 21.71 21.1238 21.8C21.0205 21.89 20.8805 21.95 20.7038 21.98C20.5272 22.0067 20.3238 22.02 20.0938 22.02ZM22.2625 22.015C22.1291 22.015 22.0241 22 21.9475 21.97C21.8741 21.94 21.8208 21.8867 21.7875 21.81C21.7541 21.7333 21.7375 21.63 21.7375 21.5V20.26H21.5375V20.005H21.7375V19.675C21.7375 19.615 21.7425 19.5717 21.7525 19.545C21.7625 19.515 21.7791 19.4967 21.8025 19.49C21.8291 19.48 21.8675 19.475 21.9175 19.475H22.2075C22.2075 19.4817 22.2075 19.4967 22.2075 19.52C22.2075 19.54 22.2075 19.57 22.2075 19.61V20.005H22.6775V20.26H22.2075V21.455C22.2075 21.585 22.2208 21.6783 22.2475 21.735C22.2741 21.7883 22.3375 21.815 22.4375 21.815C22.4708 21.815 22.5075 21.8117 22.5475 21.805C22.5908 21.7983 22.6208 21.7917 22.6375 21.785V21.98C22.6175 21.9833 22.5741 21.99 22.5075 22C22.4408 22.01 22.3591 22.015 22.2625 22.015ZM24.0151 22.03C23.8118 22.03 23.6401 22.0167 23.5001 21.99C23.3635 21.9633 23.2535 21.9133 23.1701 21.84C23.0901 21.7667 23.0335 21.665 23.0001 21.535C22.9668 21.405 22.9501 21.2367 22.9501 21.03C22.9501 20.7833 22.9818 20.5833 23.0451 20.43C23.1085 20.2767 23.2201 20.165 23.3801 20.095C23.5435 20.0217 23.7701 19.985 24.0601 19.985C24.2868 19.985 24.4668 20.0133 24.6001 20.07C24.7368 20.1233 24.8351 20.2083 24.8951 20.325C24.9551 20.4417 24.9851 20.59 24.9851 20.77V21.09H23.5801C23.5801 21.0367 23.5918 20.9933 23.6151 20.96C23.6385 20.9267 23.6818 20.91 23.7451 20.91H24.5651L24.5601 20.78C24.5568 20.5933 24.5168 20.4567 24.4401 20.37C24.3668 20.2833 24.2335 20.24 24.0401 20.24C23.8801 20.24 23.7551 20.265 23.6651 20.315C23.5751 20.365 23.5118 20.4467 23.4751 20.56C23.4385 20.67 23.4201 20.8233 23.4201 21.02C23.4201 21.2233 23.4401 21.3783 23.4801 21.485C23.5235 21.5883 23.5935 21.6583 23.6901 21.695C23.7901 21.7317 23.9285 21.75 24.1051 21.75C24.1685 21.75 24.2418 21.7483 24.3251 21.745C24.4118 21.7417 24.4985 21.7367 24.5851 21.73C24.6751 21.7233 24.7551 21.715 24.8251 21.705C24.8951 21.695 24.9418 21.685 24.9651 21.675V21.745C24.9651 21.7817 24.9568 21.8183 24.9401 21.855C24.9235 21.8917 24.8885 21.9217 24.8351 21.945C24.7651 21.9783 24.6618 22 24.5251 22.01C24.3918 22.0233 24.2218 22.03 24.0151 22.03ZM25.6125 22C25.5358 22 25.4841 21.9883 25.4575 21.965C25.4341 21.9417 25.4225 21.8917 25.4225 21.815V20.145C25.4591 20.135 25.5058 20.1217 25.5625 20.105C25.6225 20.0883 25.6908 20.0717 25.7675 20.055C25.8475 20.035 25.9341 20.02 26.0275 20.01C26.1241 20 26.2241 19.995 26.3275 19.995C26.4475 19.995 26.5508 20.005 26.6375 20.025C26.7241 20.0417 26.7991 20.075 26.8625 20.125C26.9258 20.1717 26.9775 20.24 27.0175 20.33L26.9375 20.325C26.9641 20.2617 27.0041 20.2083 27.0575 20.165C27.1108 20.1183 27.1708 20.0833 27.2375 20.06C27.3075 20.0333 27.3791 20.015 27.4525 20.005C27.5258 19.995 27.5941 19.99 27.6575 19.99C27.8575 19.99 28.0141 20.01 28.1275 20.05C28.2441 20.0867 28.3258 20.15 28.3725 20.24C28.4225 20.33 28.4475 20.4533 28.4475 20.61V21.83C28.4475 21.9 28.4341 21.9467 28.4075 21.97C28.3841 21.99 28.3375 22 28.2675 22H27.9825C27.9825 21.7667 27.9825 21.5333 27.9825 21.3C27.9825 21.0667 27.9825 20.8317 27.9825 20.595C27.9791 20.4517 27.9458 20.355 27.8825 20.305C27.8191 20.255 27.7225 20.23 27.5925 20.23C27.5325 20.23 27.4691 20.2383 27.4025 20.255C27.3391 20.2717 27.2841 20.295 27.2375 20.325C27.1941 20.355 27.1725 20.39 27.1725 20.43V22H26.7025V20.49C26.7025 20.41 26.6658 20.3483 26.5925 20.305C26.5191 20.2583 26.4241 20.235 26.3075 20.235C26.2375 20.235 26.1725 20.2417 26.1125 20.255C26.0525 20.265 26.0025 20.28 25.9625 20.3C25.9225 20.32 25.8991 20.3467 25.8925 20.38V22H25.6125Z" fill="white"/>
</svg>
